<?xml version="1.0" encoding="UTF-8" standalone="no"?>
<!-- Created with Inkscape (http://www.inkscape.org/) -->

<svg
   xmlns:dc="http://purl.org/dc/elements/1.1/"
   xmlns:cc="http://creativecommons.org/ns#"
   xmlns:rdf="http://www.w3.org/1999/02/22-rdf-syntax-ns#"
   xmlns:svg="http://www.w3.org/2000/svg"
   xmlns="http://www.w3.org/2000/svg"
   xmlns:sodipodi="http://sodipodi.sourceforge.net/DTD/sodipodi-0.dtd"
   xmlns:inkscape="http://www.inkscape.org/namespaces/inkscape"
   width="210mm"
   height="297mm"
   viewBox="0 0 210 297"
   version="1.1"
   id="svg8"
   inkscape:version="0.92.4 (5da689c313, 2019-01-14)"
   sodipodi:docname="Mountain.svg">
  <defs
     id="defs2" />
  <sodipodi:namedview
     id="base"
     pagecolor="#ffffff"
     bordercolor="#666666"
     borderopacity="1.0"
     inkscape:pageopacity="0.0"
     inkscape:pageshadow="2"
     inkscape:zoom="2"
     inkscape:cx="434.17696"
     inkscape:cy="302.27822"
     inkscape:document-units="mm"
     inkscape:current-layer="layer1"
     showgrid="false"
     inkscape:window-width="2560"
     inkscape:window-height="1361"
     inkscape:window-x="-9"
     inkscape:window-y="-9"
     inkscape:window-maximized="1" />
  <metadata
     id="metadata5">
    <rdf:RDF>
      <cc:Work
         rdf:about="">
        <dc:format>image/svg+xml</dc:format>
        <dc:type
           rdf:resource="http://purl.org/dc/dcmitype/StillImage" />
        <dc:title></dc:title>
      </cc:Work>
    </rdf:RDF>
  </metadata>
  <g
     inkscape:label="Layer 1"
     inkscape:groupmode="layer"
     id="layer1"
     style="display:inline">
    <rect
       style="fill:#3590fa;fill-opacity:1;stroke-width:0.36378774"
       id="rect3727"
       width="420.15833"
       height="309.94049"
       x="-93.655411"
       y="23.32634" />
    <path
       style="fill:none;stroke:none;stroke-width:0"
       d="m 229.47538,970.39011 c -9.65327,-2.1272 -17.91961,-3.97924 -18.36964,-4.11564 -0.45003,-0.13642 -7.68884,-4.43381 -16.08624,-9.5498 l -15.26799,-9.30177 -4.96987,-8.53162 c -2.73343,-4.69241 -5.05471,-8.58407 -5.1584,-8.64817 -0.10369,-0.0641 -4.83936,-1.07765 -10.52371,-2.25241 l -10.33518,-2.13589 -22.33708,-7.32762 -22.33707,-7.32762 -14.01587,-1.27999 c -7.708726,-0.70399 -14.170771,-1.30571 -14.360099,-1.33717 -0.189327,-0.0315 5.350746,-1.22314 12.311275,-2.64818 l 12.655504,-2.59098 9.65955,-4.63617 9.65954,-4.63616 6.39262,-8.17768 6.39263,-8.17768 20.43284,-9.34884 20.43283,-9.34884 8.52988,-8.88144 c 7.31481,-7.61629 9.80388,-10.00557 17.4735,-16.77297 10.13402,-8.94191 7.69862,-6.14181 20.17992,-23.20186 l 6.55896,-8.9651 15.23661,-11.7573 15.23661,-11.75729 8.90592,-12.10756 c 4.89826,-6.65916 9.0517,-12.27854 9.22986,-12.48751 0.17816,-0.20897 7.03515,-3.54224 15.23774,-7.40728 l 14.91382,-7.02733 9.82734,-12.77888 c 7.80913,-10.15451 10.11529,-12.9898 11.22946,-13.80592 0.77116,-0.56488 5.66711,-4.03764 10.87988,-7.71724 l 9.47775,-6.69019 6.52731,-9.01673 6.5273,-9.01674 11.73211,-11.13308 c 6.45266,-6.12319 11.77497,-11.09021 11.82737,-11.03781 0.0524,0.0524 -1.83289,7.64154 -4.18953,16.86475 l -4.28476,16.76948 1.79216,5.72453 1.79219,5.72454 -1.82638,9.68029 c -1.00452,5.32416 -2.90149,14.79419 -4.2155,21.04451 -1.314,6.25032 -2.39668,11.64832 -2.40595,11.99556 -0.009,0.34724 0.61069,2.96101 1.37775,5.80837 1.36971,5.08463 5.48278,22.81862 5.48278,23.63974 0,0.23022 -1.64572,2.98883 -3.65716,6.13023 l -3.65716,5.71164 -4.99227,4.45025 -4.99228,4.45025 -2.63177,6.66143 c -1.44748,3.66379 -5.86725,14.61638 -9.82169,24.3391 l -7.18991,17.67767 -3.63388,14.89975 c -1.99863,8.19486 -3.68748,15.07552 -3.75296,15.29036 -0.0655,0.21483 -3.23621,2.86497 -7.04599,5.88919 l -6.9269,5.49859 -1.27986,4.00003 -1.27987,4.00002 v 8.74047 8.74046 l -7.38674,9.50592 -7.38674,9.50591 -7.19269,5.40205 -7.1927,5.40206 -4.88613,8.38366 c -2.68737,4.61105 -5.01913,8.51104 -5.18167,8.66668 -0.16255,0.15567 -5.23898,2.70426 -11.28095,5.66358 -10.8874,5.33254 -11.0147,5.40378 -14.26841,7.985 -1.80565,1.43245 -3.45346,2.59357 -3.6618,2.58026 -0.20834,-0.0134 -8.27694,-1.76466 -17.93021,-3.89187 z"
       id="path4572"
       inkscape:connector-curvature="0"
       transform="scale(0.26458333)" />
    <path
       style="fill:#999999;fill-opacity:1;stroke:#999999;stroke-width:0.3607915;stroke-miterlimit:4;stroke-dasharray:none;stroke-opacity:1"
       d="m 107.43423,928.66927 27.57629,-13.81778 6.37909,-8.18551 17.59141,-9.57458 12.71177,-10.41972 13.95823,-15.93629 17.9331,-12.14547 15.21678,-18.53811 16.37759,-15.50587 15.09158,-12.71763 10.83593,-13.6584 17.15236,-17.5542 5.90667,-4.7405 9.73559,-16.12573 13.23558,-9.34021 9.90401,-12.83799 11.67177,-16.01996 11.15768,-9.0578 6.91503,-14.36109 6.51225,-8.95788 17.87358,-19.79367 12.23548,-11.88452 -4.6647,17.4183 -4.10705,16.05306 1.0899,3.62747 1.77762,5.90031 -5.04069,31.18306 -2.84219,13.75793 1.39355,5.18243 3.5551,14.7173 2.16153,9.53486 -3.60797,5.6805 -8.75896,10.31453 -5.49962,5.73251 -9.80698,24.38897 -9.45834,23.29049 -3.68402,15.16066 -3.68403,15.16066 -6.9217,5.50328 -6.9217,5.50328 -1.33162,4.07068 -1.33163,12.77799 v 8.70731 l -14.65256,19.03675 z"
       id="path4655"
       inkscape:connector-curvature="0"
       transform="scale(0.26458333)"
       sodipodi:nodetypes="ccccccccccccccccccccccccccccccccccccccccccccc" />
    <path
       style="fill:#f9f9f9;fill-opacity:1;stroke:#f9f9f9;stroke-width:0.3607915;stroke-miterlimit:4;stroke-dasharray:none;stroke-opacity:1"
       d="m 299.50744,929.77681 16.16779,-18.59989 v -8.9837 l 1.1671,-12.49134 1.1671,-3.50765 6.78785,-5.42545 7.1636,-6.31345 5.96246,-25.69988 8.79138,-22.41276 7.02278,-18.2262 6.48776,-20.00569 7.74419,-11.66798 2.53821,-12.2169 0.61209,-13.29251 -1.57371,-5.96128 2.37891,-11.46385 3.79138,-21.43896 1.475,-10.25637 -0.84277,-5.36974 -1.78026,-5.7135 4.25248,-16.78336 4.78821,-16.39153 6.4858,15.84267 9.64539,12.32587 9.20468,9.51488 9.95468,8.68798 7.59709,11.43728 9.60978,10.61596 5.61883,4.61105 8.49683,9.0577 6.67853,12.17646 12.78806,19.28572 8.04583,11.51933 17.0501,16.22603 9.60234,14.56027 15.01717,10.51475 18.96328,26.36539 18.92702,17.36075 16.82062,14.66017 23.81912,9.20092 17.40199,22.83821 13.15936,14.70649 z"
       id="path4657"
       inkscape:connector-curvature="0"
       transform="scale(0.26458333)"
       sodipodi:nodetypes="ccccccccccccccccccccccccccccccccccccccccccc" />
    <rect
       style="fill:#43b045;fill-opacity:1;stroke:none;stroke-width:0.67900461;stroke-miterlimit:4;stroke-dasharray:none;stroke-opacity:1"
       id="rect4663"
       width="494.76843"
       height="97.670357"
       x="-140.27779"
       y="245.37294" />
  </g>
</svg>
